<svg id="图层_1" data-name="图层 1" xmlns="http://www.w3.org/2000/svg" xmlns:xlink="http://www.w3.org/1999/xlink" viewBox="0 0 600 600"><defs><style>.cls-1{fill:url(#未命名的渐变_9);}.cls-2{fill:url(#未命名的渐变_10);}.cls-3{fill:url(#未命名的渐变_14);}.cls-4{fill:url(#未命名的渐变_9-2);}.cls-5{fill:url(#未命名的渐变_7);}.cls-6{fill:url(#未命名的渐变_7-2);}</style><linearGradient id="未命名的渐变_9" x1="513.24" y1="-1432.25" x2="770.09" y2="-1432.25" gradientTransform="translate(278.47 1630.88) rotate(-22.5)" gradientUnits="userSpaceOnUse"><stop offset="0" stop-color="#4677b3"/><stop offset="1" stop-color="#a3cfff"/></linearGradient><linearGradient id="未命名的渐变_10" x1="229.28" y1="-1316.29" x2="735.86" y2="-1316.29" gradientTransform="translate(278.47 1630.88) rotate(-22.5)" gradientUnits="userSpaceOnUse"><stop offset="0" stop-color="#a3cfff"/><stop offset="1" stop-color="#4677b3"/></linearGradient><linearGradient id="未命名的渐变_14" x1="251.41" y1="-1010.43" x2="508.19" y2="-1010.43" xlink:href="#未命名的渐变_10"/><linearGradient id="未命名的渐变_9-2" x1="322.53" y1="-1126.39" x2="829.11" y2="-1126.39" xlink:href="#未命名的渐变_9"/><radialGradient id="未命名的渐变_7" cx="-4063.53" cy="-2358.38" r="448.62" gradientTransform="translate(2466.72 1549.41) scale(0.5)" xlink:href="#未命名的渐变_10"/><radialGradient id="未命名的渐变_7-2" cx="-4414.87" cy="-2748" r="418.91" gradientTransform="translate(2466.72 1549.41) scale(0.5)" xlink:href="#未命名的渐变_10"/></defs><title>whatsapp-transfer</title><path class="cls-1" d="M414.77,22.91a302.43,302.43,0,0,1,30,14.4A30,30,0,0,1,458.08,75.1l-13.74,33.18h0A240.08,240.08,0,0,0,170.65,29.4a299.25,299.25,0,0,1,244.12-6.49Z"/><path class="cls-2" d="M444.25,108.21A240,240,0,0,0,78.32,391.82l31.49-13a15,15,0,0,1,19.59,19.59L83.94,508.13a300.29,300.29,0,0,1-61-322.9q2.47-6,5.19-11.79a298.73,298.73,0,0,1,142.55-144,240.06,240.06,0,0,1,273.6,78.81Z"/><path class="cls-3" d="M429.29,570.61a300.3,300.3,0,0,1-274.06-7.92,30,30,0,0,1-13.31-37.79l13.74-33.17h0a240,240,0,0,0,273.6,78.89Z"/><path class="cls-4" d="M516.06,91.87a300.29,300.29,0,0,1,61,322.9q-2.48,6-5.19,11.79A298.57,298.57,0,0,1,429.29,570.61a240,240,0,0,1-273.54-78.82A240,240,0,0,0,521.68,208.18l-31.49,13a15,15,0,0,1-19.59-19.59Z"/><path class="cls-5" d="M455,385a60,60,0,0,1-60,60,239.12,239.12,0,0,1-109.64-26.45q-8.79-4.53-17.16-9.75l-.08-.05a120.24,120.24,0,0,1-43.6-144.45l.49-.08A180.38,180.38,0,0,0,335.82,375,60,60,0,0,1,455,385Z"/><path class="cls-6" d="M224.49,264.26a120.24,120.24,0,0,0,43.6,144.45A239.79,239.79,0,0,1,155,205a60,60,0,1,1,120,0c0,.25,0,.49,0,.74a60,60,0,0,1-50,58.41Z"/></svg>